<?xml version="1.0" encoding="utf-8"?>
<!-- Generator: Adobe Illustrator 19.2.1, SVG Export Plug-In . SVG Version: 6.00 Build 0)  -->
<svg version="1.1" id="Capa_1" xmlns="http://www.w3.org/2000/svg" xmlns:xlink="http://www.w3.org/1999/xlink" x="0px" y="0px"
	 viewBox="0 0 59 59" style="enable-background:new 0 0 59 59;" xml:space="preserve">
<style type="text/css">
	.st0{fill:#E4E7F3;}
	.st1{fill:#C5CBE5;}
</style>
<g>
	<path class="st0" d="M21.6,44.6l-7.9,4.3c-0.5,0.3-0.9,0.6-1.3,0.9C17,53.7,23,56,29.5,56c6.5,0,12.4-2.3,17-6.1
		c-0.4-0.4-0.9-0.7-1.4-0.9l-8.5-4.2c-1.1-0.5-1.8-1.7-1.8-2.9v-3.3c0.2-0.3,0.5-0.6,0.8-1c1.2-1.6,2-3.4,2.6-5.3
		c1.1-0.3,1.9-1.3,1.9-2.5v-3.5c0-0.8-0.3-1.5-0.9-2V19c0,0,1.1-8-9.7-8s-9.8,8-9.8,8v5.1c-0.5,0.5-0.9,1.2-0.9,2v3.5
		c0,0.9,0.5,1.8,1.2,2.2c0.9,3.9,3.2,6.6,3.2,6.6v3.2C23.3,42.9,22.7,44,21.6,44.6z"/>
	<g>
		<path class="st1" d="M30,3C15.3,2.8,3.3,14.4,3,29c-0.1,8.3,3.6,15.8,9.4,20.7c0.4-0.3,0.8-0.6,1.3-0.9l7.9-4.3
			c1-0.6,1.7-1.7,1.7-2.8v-3.2c0,0-2.3-2.8-3.2-6.6c-0.7-0.5-1.2-1.3-1.2-2.2v-3.5c0-0.8,0.3-1.5,0.9-2V19c0,0-1.1-8,9.8-8
			s9.7,8,9.7,8v5.1c0.5,0.5,0.9,1.2,0.9,2v3.5c0,1.2-0.8,2.2-1.9,2.5c-0.6,1.9-1.5,3.7-2.6,5.3c-0.3,0.4-0.6,0.8-0.8,1v3.3
			c0,1.2,0.7,2.3,1.8,2.9l8.5,4.2c0.5,0.3,1,0.6,1.4,0.9C52.2,45.1,55.9,38,56,30C56.2,15.3,44.6,3.3,30,3z"/>
	</g>
</g>
</svg>
